<?xml version="1.0" standalone="yes"?>
<svg xmlns="http://www.w3.org/2000/svg" width="165" height="153">
<path style="fill:#eff3f4; stroke:none;" d="M0 0L0 153L165 153L165 0L0 0z"/>
<path style="fill:#b7c1e7; stroke:none;" d="M86 11L86 12L90 11L86 11z"/>
<path style="fill:#8882e4; stroke:none;" d="M61 34L86 15L81 33L82 33L90 11C79.2548 13.0791 67.1009 25.339 61 34z"/>
<path style="fill:#b7c1e7; stroke:none;" d="M84 12L85 13L84 12M83 13L84 14L83 13M89.3333 13.6667L89.6667 14.3333L89.3333 13.6667M81 14L82 15L81 14z"/>
<path style="fill:#6458ce; stroke:none;" d="M86 14L87 15L86 14z"/>
<path style="fill:#b7c1e7; stroke:none;" d="M80 15L81 16L80 15z"/>
<path style="fill:#6458ce; stroke:none;" d="M53 43L79.2724 36.4005L86 15C75.3515 19.5074 58.2118 32.5212 53 43z"/>
<path style="fill:#b7c1e7; stroke:none;" d="M79 16L80 17L79 16M88 16L89 17L88 16M76 18L77 19L76 18M87.3333 18.6667L87.6667 19.3333L87.3333 18.6667M124 18L124 19L125 22L126 22L124 18M75 19L76 20L75 19M115 21L115 22L123 20L115 21z"/>
<path style="fill:#8882e4; stroke:none;" d="M80 35L73 38L55 50L55 51L60 49L58 52L115 27L94 56C104.533 48.5802 121.835 31.2751 126 19C115.058 19.8638 102.703 26.4499 93 31.1667C89.6103 32.8144 83.1108 37.3331 80 35z"/>
<path style="fill:#b7c1e7; stroke:none;" d="M74 20L75 21L74 20M73 21L74 22L73 21M86 21L87 22L86 21M72 22L73 23L72 22M112.667 22.3333L113.333 22.6667L112.667 22.3333M85 23L86 24L85 23M110 23L111 24L110 23M107.667 24.3333L108.333 24.6667L107.667 24.3333M123 24L124 25L123 24M68 25L69 26L68 25M105.667 25.3333L106.333 25.6667L105.667 25.3333M122 25L123 26L122 25M67 26L68 27L67 26M84 26L85 27L84 26M102.667 26.3333L103.333 26.6667L102.667 26.3333z"/>
<path style="fill:#6458ce; stroke:none;" d="M113 26L114 27L113 26z"/>
<path style="fill:#b7c1e7; stroke:none;" d="M121 26L122 27L121 26M66 27L67 28L66 27M100.667 27.3333L101.333 27.6667L100.667 27.3333z"/>
<path style="fill:#6458ce; stroke:none;" d="M58 52L60 49C49.81 51.9985 38.4957 61.3796 36 72C48.2526 75.4432 66.1929 77.7507 78 71.5579C88.9026 65.8395 98.8136 52.0749 105.39 42.0008C108.686 36.9533 113.138 32.8159 115 27C95.4352 30.2245 75.3967 42.8466 58 52z"/>
<path style="fill:#b7c1e7; stroke:none;" d="M120 27L121 28L120 27M65 28L66 29L65 28M83.3333 28.6667L83.6667 29.3333L83.3333 28.6667M98 28L99 29L98 28M64 29L65 30L64 29M96 29L97 30L96 29M63 30L64 31L63 30M93.6667 30.3333L94.3333 30.6667L93.6667 30.3333M62 31L63 32L62 31M82 31L83 32L82 31M91.6667 31.3333L92.3333 31.6667L91.6667 31.3333M117 31L118 32L117 31M61 32L62 33L61 32M89.6667 32.3333L90.3333 32.6667L89.6667 32.3333M116 32L117 33L116 32M60 33L61 34L60 33M81 33L82 34L81 33M87 33L88 34L87 33M115 33L116 34L115 33M59 34L60 35L59 34M85 34L86 35L85 34M114 34L115 35L114 34M58 35L59 36L58 35M83 35L84 36L83 35M113 35L114 36L113 35M57 36L55 39L57 36M81 36L82 37L81 36M112 36L113 37L112 36z"/>
<path style="fill:#8882e4; stroke:none;" d="M57 37L58 38L57 37z"/>
<path style="fill:#b7c1e7; stroke:none;" d="M111 37L112 38L111 37z"/>
<path style="fill:#8882e4; stroke:none;" d="M56 38L57 39L56 38z"/>
<path style="fill:#b7c1e7; stroke:none;" d="M54 39L55 40L54 39z"/>
<path style="fill:#8882e4; stroke:none;" d="M68 39L69 40L68 39z"/>
<path style="fill:#94c1d1; stroke:none;" d="M34 115C39.1513 125.305 52.0305 120.709 61 120L61 119L59 119L59 118L64 119L64 118L62 118L62 117L67 116L66 118L67 118L71 117L71 116L69 116L69 115L90 114L90 115L87 115L87 116L94 115L94 116L92 116L92 117L100 117L98 119L107 123L107 122L100 119L100 118C106.268 119.809 116.825 130.192 122.985 128.709C128.714 127.33 142.965 111.236 142.003 105.093C141.402 101.255 136.079 99.3287 133 98L133 97L138 99L138 98L131 94L133 97L125 93L125 92L128 93L128 92L108 78C111.99 63.7813 133.063 56.019 146 51C142.783 41.0385 118.806 41.1695 110 39L108 41L108 42L142 49C132.336 54.6406 112.64 59.6988 107.179 70.0432C104.45 75.2125 107.376 80.2625 111.044 83.9568C118.797 91.7665 131.716 100.108 142 104L140 109L139 109C139.704 100.797 128.708 99.8111 123 96.5718C118.127 93.8063 112.58 88.2797 107 87.3465C99.1437 86.0325 80.916 95.1448 74 99.088C65.3932 103.995 58.0736 115.37 47 113C50.2991 116.775 57.5506 114.539 62 113.866C76.4218 111.685 84.5661 110.691 99 114L99 115C89.5858 113.058 81.5992 111.721 72 113.463C60.0084 115.64 50.2627 120.887 38 117L38 116C43.8115 113.235 42.4433 109.625 42 104C53.7922 112.7 66.9233 105.031 73 92L77 93C75.0572 87.9991 70.2007 81.545 64 83.9568C61.4258 84.958 59.0151 88.1271 56.0903 87.9838C52.2939 87.7978 50.656 82.3314 46.9097 81.3179C36.4811 78.4965 25.4082 82.0882 16 86C14.1671 54.4891 52.4844 49.1762 74 40C68.8444 37.9885 62.0722 41.109 57 42.6559C42.2671 47.1491 29.0446 53.563 19.2894 66.0008C15.2504 71.1503 10.9109 79.0772 14.0324 85.7562C15.9002 89.7526 20.1492 87.0574 23 85.7909C28.953 83.1462 39.4833 80.9514 45.8156 83.6034C49.805 85.2742 51.2943 91.6219 56.0039 91.8326C60.1761 92.0192 64.0584 84.4371 68.1682 86.9707C75.6417 91.5778 55.8854 107.243 50 105.408C47.1625 104.524 44.5258 100.379 41.3326 100.921C38.2505 101.443 40.0807 106.96 39.6427 108.957C38.9759 111.998 36.4069 113.419 34 115z"/>
<path style="fill:#b7c1e7; stroke:none;" d="M111.667 39.3333L112.333 39.6667L111.667 39.3333M53 40L54 41L53 40z"/>
<path style="fill:#8882e4; stroke:none;" d="M64 40L65 41L64 40z"/>
<path style="fill:#b7c1e7; stroke:none;" d="M117.667 40.3333L118.333 40.6667L117.667 40.3333M52 41L51 43L52 41z"/>
<path style="fill:#8882e4; stroke:none;" d="M59.6667 41.3333L60.3333 41.6667L59.6667 41.3333z"/>
<path style="fill:#b7c1e7; stroke:none;" d="M123.667 41.3333L124.333 41.6667L123.667 41.3333z"/>
<path style="fill:#8882e4; stroke:none;" d="M51 43L51 44L55 44L51 43M55 42L55 43L58 43L55 42z"/>
<path style="fill:#b7c1e7; stroke:none;" d="M65 44C59.3223 42.8175 53.2946 45.7581 48 47.811C32.3047 53.8965 13.8041 67.4067 16 86C25.4253 83.2858 36.7299 77.5539 46.9097 81.6034C50.3858 82.9862 51.6731 87.6358 55.1736 88.6582C58.8056 89.719 61.8029 85.0257 65 84.0718C70.4402 82.4485 74.7308 89.0851 77 93L73 92C69.1779 97.4259 58.6956 109.946 51 108.867C47.831 108.423 44.8185 105.436 42 104C42.239 109.668 43.0646 112.508 38 116L38 117C49.8165 121.986 61.3107 115.585 73 113.463C82.3053 111.774 89.8694 113.77 99 115L99 114C89.7129 111.03 81.6977 109.276 72 111.285C64.8812 112.76 53.4415 117.879 47 113C58.2839 116.233 66.2839 104.057 75 99.088C81.3245 95.482 99.9196 86.0975 107 87.6682C112.537 88.8965 118.016 94.4131 123 97.1343C128.93 100.372 138.222 101.01 139 109L140 109L142 104C131.927 98.4134 120.29 92.0234 112.015 83.9568C108.527 80.5558 104.625 76.1229 107.183 71.0154C113.046 59.307 132.507 56.8655 142 49C133.767 45.4568 118.023 40.0781 109.039 42.3218C104.55 43.4429 101.426 48.7003 98.5748 52C92.8931 58.5767 86.28 66.3252 79 71.1458C70.6521 76.6735 56.5512 75.9524 47 74.7106C44.334 74.364 37.3914 73.9619 36.5417 70.6968C34.9233 64.4781 48.6028 55.2132 52 51C36.1884 56.3508 29.8242 66.9398 18 77C27.374 59.2065 43.255 50.2801 62 45L61 47L62 47L62 44L69 43L65 44M128.667 42.3333L129.333 42.6667L128.667 42.3333z"/>
<path style="fill:#eff3f4; stroke:none;" d="M64 43L65 44L64 43M106 44L106 45L131 49C126.879 44.211 112.033 43.0405 106 44z"/>
<path style="fill:#b7c1e7; stroke:none;" d="M132.667 43.3333L133.333 43.6667L132.667 43.3333z"/>
<path style="fill:#eff3f4; stroke:none;" d="M62.6667 44.3333L63.3333 44.6667L62.6667 44.3333z"/>
<path style="fill:#b7c1e7; stroke:none;" d="M136.667 44.3333L137.333 44.6667L136.667 44.3333M47 45L48 46L47 45z"/>
<path style="fill:#eff3f4; stroke:none;" d="M18 77L33.0895 61.7099L62 46C45.8141 42.3023 22.9591 63.3768 18 77z"/>
<path style="fill:#6458ce; stroke:none;" d="M64 47L67 46L64 47z"/>
<path style="fill:#b7c1e7; stroke:none;" d="M45 46L46 47L45 46M142 46L143 47L142 46M43 47L44 48L43 47M59 47L60 48L59 47z"/>
<path style="fill:#6458ce; stroke:none;" d="M62 47L60 48L60 49L62 47z"/>
<path style="fill:#b7c1e7; stroke:none;" d="M145 47L146 48L145 47M57 48L58 49L57 48M55 49L56 50L55 49M37 50L38 51L37 50M53 50L54 51L53 50z"/>
<path style="fill:#94c1d1; stroke:none;" d="M54 50L55 51L54 50z"/>
<path style="fill:#b7c1e7; stroke:none;" d="M35 51L36 52L35 51z"/>
<path style="fill:#94c1d1; stroke:none;" d="M52 51L53 52L52 51z"/>
<path style="fill:#8882e4; stroke:none;" d="M53 51L54 52L53 51z"/>
<path style="fill:#b7c1e7; stroke:none;" d="M144 51L145 52L144 51z"/>
<path style="fill:#8882e4; stroke:none;" d="M51.6667 52.3333L52.3333 52.6667L51.6667 52.3333z"/>
<path style="fill:#94c1d1; stroke:none;" d="M98 52L99 53L98 52z"/>
<path style="fill:#b7c1e7; stroke:none;" d="M32 53L33 54L32 53z"/>
<path style="fill:#8882e4; stroke:none;" d="M50 53L51 54L50 53z"/>
<path style="fill:#94c1d1; stroke:none;" d="M97 53L98 54L97 53z"/>
<path style="fill:#b7c1e7; stroke:none;" d="M139 53L140 54L139 53M31 54L32 55L31 54z"/>
<path style="fill:#94c1d1; stroke:none;" d="M48 54L49 55L48 54z"/>
<path style="fill:#8882e4; stroke:none;" d="M49 54L50 55L49 54M68.6667 54.3333L69.3333 54.6667L68.6667 54.3333z"/>
<path style="fill:#b7c1e7; stroke:none;" d="M70 54L72 56L70 54z"/>
<path style="fill:#8882e4; stroke:none;" d="M71 54L72 55L71 54z"/>
<path style="fill:#94c1d1; stroke:none;" d="M96 54L97 55L96 54z"/>
<path style="fill:#b7c1e7; stroke:none;" d="M137 54L138 55L137 54z"/>
<path style="fill:#8882e4; stroke:none;" d="M47 55L48 56L47 55M64.6667 55.3333L65.3333 55.6667L64.6667 55.3333z"/>
<path style="fill:#b7c1e7; stroke:none;" d="M66.6667 55.3333L67.3333 55.6667L66.6667 55.3333z"/>
<path style="fill:#eff3f4; stroke:none;" d="M42 71C55.4711 71.5784 66.0243 70.0017 71 55C59.5533 56.5427 48.7716 61.3933 42 71z"/>
<path style="fill:#94c1d1; stroke:none;" d="M95 55L96 56L95 55z"/>
<path style="fill:#b7c1e7; stroke:none;" d="M135 55L136 56L135 55M28 56L29 57L28 56z"/>
<path style="fill:#8882e4; stroke:none;" d="M46 56L47 57L46 56M62 56L63 57L62 56z"/>
<path style="fill:#b7c1e7; stroke:none;" d="M63 56L64 57L63 56z"/>
<path style="fill:#94c1d1; stroke:none;" d="M94 56L95 57L94 56z"/>
<path style="fill:#b7c1e7; stroke:none;" d="M27 57L28 58L27 57z"/>
<path style="fill:#8882e4; stroke:none;" d="M45 57L46 58L45 57M59 57L60 58L59 57z"/>
<path style="fill:#b7c1e7; stroke:none;" d="M60 57L61 58L60 57M70 57L71 58L70 57z"/>
<path style="fill:#8882e4; stroke:none;" d="M93 57L94 58L93 57z"/>
<path style="fill:#b7c1e7; stroke:none;" d="M26 58L27 59L26 58z"/>
<path style="fill:#8882e4; stroke:none;" d="M44 58L45 59L44 58M56 58L57 59L56 58z"/>
<path style="fill:#b7c1e7; stroke:none;" d="M57 58L58 59L57 58z"/>
<path style="fill:#8882e4; stroke:none;" d="M92 58L93 59L92 58M43 59L44 60L43 59M54 59L55 60L54 59z"/>
<path style="fill:#b7c1e7; stroke:none;" d="M55 59L56 60L55 59z"/>
<path style="fill:#8882e4; stroke:none;" d="M69 59L70 60L69 59z"/>
<path style="fill:#94c1d1; stroke:none;" d="M91 59L92 60L91 59z"/>
<path style="fill:#eff3f4; stroke:none;" d="M117 92C109.979 83.3197 96.734 75.321 110.014 64.9005C112.25 63.1459 114.652 61.5974 117 60C109.54 58.9175 101.249 68.7513 102.569 76C103.939 83.5235 110.549 88.7865 117 92z"/>
<path style="fill:#8882e4; stroke:none;" d="M42 60L43 61L42 60M52 60L53 61L52 60z"/>
<path style="fill:#b7c1e7; stroke:none;" d="M53 60L54 61L53 60M68 60L69 61L68 60z"/>
<path style="fill:#94c1d1; stroke:none;" d="M90 60L91 61L90 60z"/>
<path style="fill:#8882e4; stroke:none;" d="M41 61L42 62L41 61M50 61L51 62L50 61z"/>
<path style="fill:#b7c1e7; stroke:none;" d="M51 61L52 62L51 61M67 61L68 62L67 61z"/>
<path style="fill:#94c1d1; stroke:none;" d="M89 61L90 62L89 61z"/>
<path style="fill:#b7c1e7; stroke:none;" d="M22 62L23 63L22 62z"/>
<path style="fill:#8882e4; stroke:none;" d="M49 62L50 63L49 62M67 62L68 63L67 62M88 62L89 63L88 62z"/>
<path style="fill:#b7c1e7; stroke:none;" d="M122 62L123 63L122 62M21 63L22 64L21 63M48 63L49 64L48 63z"/>
<path style="fill:#8882e4; stroke:none;" d="M66 63L67 64L66 63M87 63L88 64L87 63z"/>
<path style="fill:#b7c1e7; stroke:none;" d="M120 63L121 64L120 63M20 64L21 65L20 64z"/>
<path style="fill:#8882e4; stroke:none;" d="M39 64L40 65L39 64z"/>
<path style="fill:#b7c1e7; stroke:none;" d="M47 64L48 65L47 64z"/>
<path style="fill:#8882e4; stroke:none;" d="M65 64L66 65L65 64z"/>
<path style="fill:#94c1d1; stroke:none;" d="M86 64L87 65L86 64z"/>
<path style="fill:#b7c1e7; stroke:none;" d="M19 65L20 66L19 65z"/>
<path style="fill:#8882e4; stroke:none;" d="M38 65L39 66L38 65z"/>
<path style="fill:#b7c1e7; stroke:none;" d="M46 65L47 66L46 65z"/>
<path style="fill:#8882e4; stroke:none;" d="M64 65L65 66L64 65z"/>
<path style="fill:#94c1d1; stroke:none;" d="M85 65L86 66L85 65M37 66L38 67L37 66z"/>
<path style="fill:#b7c1e7; stroke:none;" d="M45 66L46 67L45 66z"/>
<path style="fill:#8882e4; stroke:none;" d="M63 66L64 67L63 66z"/>
<path style="fill:#94c1d1; stroke:none;" d="M84 66L85 67L84 66z"/>
<path style="fill:#b7c1e7; stroke:none;" d="M115 66L116 67L115 66z"/>
<path style="fill:#8882e4; stroke:none;" d="M37 67L38 68L37 67z"/>
<path style="fill:#b7c1e7; stroke:none;" d="M44 67L45 68L44 67z"/>
<path style="fill:#8882e4; stroke:none;" d="M62 67L63 68L62 67z"/>
<path style="fill:#94c1d1; stroke:none;" d="M83 67L84 68L83 67z"/>
<path style="fill:#b7c1e7; stroke:none;" d="M17 68L18 69L17 68z"/>
<path style="fill:#8882e4; stroke:none;" d="M36 68L37 69L36 68z"/>
<path style="fill:#b7c1e7; stroke:none;" d="M43 68L44 69L43 68z"/>
<path style="fill:#8882e4; stroke:none;" d="M61 68L62 69L61 68M82 68L83 69L82 68z"/>
<path style="fill:#b7c1e7; stroke:none;" d="M112 68L113 69L112 68z"/>
<path style="fill:#94c1d1; stroke:none;" d="M35 69L36 70L35 69z"/>
<path style="fill:#8882e4; stroke:none;" d="M42 69L43 70L42 69M60 69L61 70L60 69z"/>
<path style="fill:#94c1d1; stroke:none;" d="M81 69L82 70L81 69z"/>
<path style="fill:#8882e4; stroke:none;" d="M35.3333 70.6667L35.6667 71.3333L35.3333 70.6667z"/>
<path style="fill:#b7c1e7; stroke:none;" d="M58 70L59 71L58 70z"/>
<path style="fill:#94c1d1; stroke:none;" d="M80 70L81 71L80 70z"/>
<path style="fill:#b7c1e7; stroke:none;" d="M15 71L16 72L15 71z"/>
<path style="fill:#8882e4; stroke:none;" d="M42.6667 71.3333L43.3333 71.6667L42.6667 71.3333z"/>
<path style="fill:#b7c1e7; stroke:none;" d="M44 71L44 72L48 72L44 71z"/>
<path style="fill:#8882e4; stroke:none;" d="M57 71L58 72L57 71M78 71L79 72L78 71z"/>
<path style="fill:#94c1d1; stroke:none;" d="M36 72L37 73L36 72z"/>
<path style="fill:#8882e4; stroke:none;" d="M37 72L38 73L37 72M51 72L51 73L56 73L51 72M76 72L77 73L76 72z"/>
<path style="fill:#94c1d1; stroke:none;" d="M77 72L78 73L77 72z"/>
<path style="fill:#b7c1e7; stroke:none;" d="M14 73L15 74L14 73z"/>
<path style="fill:#94c1d1; stroke:none;" d="M40 73L41 74L40 73z"/>
<path style="fill:#8882e4; stroke:none;" d="M41 73L42 74L41 73M72.6667 73.3333L73.3333 73.6667L72.6667 73.3333z"/>
<path style="fill:#94c1d1; stroke:none;" d="M74 73L75 74L74 73z"/>
<path style="fill:#b7c1e7; stroke:none;" d="M108.333 73.6667L108.667 74.3333L108.333 73.6667z"/>
<path style="fill:#94c1d1; stroke:none;" d="M45 74L46 75L45 74z"/>
<path style="fill:#8882e4; stroke:none;" d="M46 74L46 75L50 75L46 74M65 74L65 75L69 75L65 74z"/>
<path style="fill:#94c1d1; stroke:none;" d="M69 74L70 75L69 74z"/>
<path style="fill:#b7c1e7; stroke:none;" d="M13.3333 75.6667L13.6667 76.3333L13.3333 75.6667z"/>
<path style="fill:#94c1d1; stroke:none;" d="M57.6667 75.3333L58.3333 75.6667L57.6667 75.3333z"/>
<path style="fill:#eff3f4; stroke:none;" d="M44 78L44 79L58 86C54.0312 81.4326 50.5689 76.4178 44 78z"/>
<path style="fill:#8882e4; stroke:none;" d="M108 77L109 78L108 77z"/>
<path style="fill:#b7c1e7; stroke:none;" d="M109 77L110 78L109 77z"/>
<path style="fill:#8882e4; stroke:none;" d="M108 79L109 80L108 79z"/>
<path style="fill:#b7c1e7; stroke:none;" d="M110 79L111 80L110 79M111 80L112 81L111 80M112 81L113 82L112 81z"/>
<path style="fill:#8882e4; stroke:none;" d="M111 82L111 83L115 85L115 84L111 82z"/>
<path style="fill:#b7c1e7; stroke:none;" d="M29.6667 83.3333L30.3333 83.6667L29.6667 83.3333M47 83L48 84L47 83M13.3333 84.6667L13.6667 85.3333L13.3333 84.6667M25 84L26 85L25 84M116 84L117 85L116 84M23 85L24 86L23 85M66 85L67 86L66 85M117 85L118 86L117 85M21 86L22 87L21 86M49 86L50 87L49 86M64 86L65 87L64 86M68 86L69 87L68 86M19 87L20 88L19 87M63 87L64 88L63 87z"/>
<path style="fill:#8882e4; stroke:none;" d="M118 87L118 88L125 92L125 91L118 87z"/>
<path style="fill:#b7c1e7; stroke:none;" d="M15 88L16 89L15 88M17 88L18 89L17 88z"/>
<path style="fill:#8882e4; stroke:none;" d="M73 88L76 92L73 88z"/>
<path style="fill:#b7c1e7; stroke:none;" d="M122 88L123 89L122 88M52 90L53 91L52 90M59 90L60 91L59 90M71 90L72 91L71 90M125 90L126 91L125 90M53 91L54 92L53 91M58 91L59 92L58 91M54 92L55 93L54 92M57 92L58 93L57 92z"/>
<path style="fill:#eff3f4; stroke:none;" d="M118 92L119 93L118 92z"/>
<path style="fill:#8882e4; stroke:none;" d="M125 92L125 93L133 97L125 92z"/>
<path style="fill:#b7c1e7; stroke:none;" d="M128 92L129 93L128 92z"/>
<path style="fill:#94c1d1; stroke:none;" d="M129 93L130 94L129 93z"/>
<path style="fill:#b7c1e7; stroke:none;" d="M67 95L68 96L67 95M133 95L134 96L133 95M66 96L67 97L66 96M65 97L66 98L65 97z"/>
<path style="fill:#8882e4; stroke:none;" d="M133 97L133 98C135.706 99.6642 140.577 101.637 141.323 105.093C142.543 110.742 127.586 127.8 121.996 128.088C114.955 128.45 107.329 119.307 100 118L100 119C106.218 121.679 117.175 132.4 124 130.214C130.094 128.262 145.699 111.076 143.582 104.043C142.328 99.8783 136.694 98.0666 133 97z"/>
<path style="fill:#b7c1e7; stroke:none;" d="M138 98L139 99L138 98z"/>
<path style="fill:#94c1d1; stroke:none;" d="M139 99L140 100L139 99z"/>
<path style="fill:#b7c1e7; stroke:none;" d="M61 100L62 101L61 100M141 100L142 101L141 100M60 101L61 102L60 101z"/>
<path style="fill:#94c1d1; stroke:none;" d="M142 101L145 104L142 101z"/>
<path style="fill:#b7c1e7; stroke:none;" d="M143 101L144 102L143 101M144 102L145 103L144 102M46 103L47 104L46 103M57 103L58 104L57 103M39 104L39 108L40 108L39 104M47 104L48 105L47 104z"/>
<path style="fill:#94c1d1; stroke:none;" d="M144.333 105.667L144.667 106.333L144.333 105.667z"/>
<path style="fill:#b7c1e7; stroke:none;" d="M50 106L51 107L50 106M52 106L53 107L52 106z"/>
<path style="fill:#94c1d1; stroke:none;" d="M143.333 107.667L143.667 108.333L143.333 107.667z"/>
<path style="fill:#eff3f4; stroke:none;" d="M59 108C53.0803 111.421 50.2952 110.404 44 109L45 114L46 114L60 109L59 108z"/>
<path style="fill:#b7c1e7; stroke:none;" d="M138 109C134.496 113.544 128.394 125.52 122 125.833C114.957 126.179 106.552 116.346 99 115L99 116L123 127.542L133.076 118L138 109z"/>
<path style="fill:#94c1d1; stroke:none;" d="M142 109L143 110L142 109z"/>
<path style="fill:#b7c1e7; stroke:none;" d="M142 110L143 111L142 110z"/>
<path style="fill:#94c1d1; stroke:none;" d="M141 111L142 112L141 111z"/>
<path style="fill:#b7c1e7; stroke:none;" d="M36 113L37 114L36 113M140 113L141 114L140 113M34 114L35 115L34 114z"/>
<path style="fill:#8882e4; stroke:none;" d="M75 114L76 115L75 114M86 114L86 115L90 115L86 114z"/>
<path style="fill:#94c1d1; stroke:none;" d="M139 114L140 115L139 114z"/>
<path style="fill:#8882e4; stroke:none;" d="M69 115L69 116L72 116L69 115z"/>
<path style="fill:#b7c1e7; stroke:none;" d="M76 115L76 116L79 116L76 115M84 115L84 116L87 116L84 115z"/>
<path style="fill:#8882e4; stroke:none;" d="M90 115L90 116L94 116L90 115z"/>
<path style="fill:#94c1d1; stroke:none;" d="M138 115L137 117L138 115z"/>
<path style="fill:#8882e4; stroke:none;" d="M62 117L62 118L67 117L62 117z"/>
<path style="fill:#b7c1e7; stroke:none;" d="M71.6667 116.333L72.3333 116.667L71.6667 116.333M90.6667 116.333L91.3333 116.667L90.6667 116.333z"/>
<path style="fill:#8882e4; stroke:none;" d="M94 116L94 117L100 118L94 116z"/>
<path style="fill:#b7c1e7; stroke:none;" d="M138 116L139 117L138 116M34 117L35 118L34 117M68 117L69 118L68 117M94 117L95 118L94 117z"/>
<path style="fill:#94c1d1; stroke:none;" d="M95 117L96 118L95 117z"/>
<path style="fill:#b7c1e7; stroke:none;" d="M137 117L138 118L137 117M35 118L36 119L35 118z"/>
<path style="fill:#8882e4; stroke:none;" d="M38 118L39 119L38 118M59 118L59 119L62 119L59 118z"/>
<path style="fill:#b7c1e7; stroke:none;" d="M64 118L65 119L64 118M97 118L98 119L97 118z"/>
<path style="fill:#94c1d1; stroke:none;" d="M136 118L137 119L136 118z"/>
<path style="fill:#b7c1e7; stroke:none;" d="M61 119L62 120L61 119M99 119L100 120L99 119z"/>
<path style="fill:#94c1d1; stroke:none;" d="M135 119L136 120L135 119z"/>
<path style="fill:#b7c1e7; stroke:none;" d="M39 120L40 121L39 120z"/>
<path style="fill:#8882e4; stroke:none;" d="M47.6667 120.333L48.3333 120.667L47.6667 120.333z"/>
<path style="fill:#b7c1e7; stroke:none;" d="M56.6667 120.333L57.3333 120.667L56.6667 120.333z"/>
<path style="fill:#94c1d1; stroke:none;" d="M134 120L135 121L134 120z"/>
<path style="fill:#b7c1e7; stroke:none;" d="M42.6667 121.333L43.3333 121.667L42.6667 121.333M50.6667 121.333L51.3333 121.667L50.6667 121.333z"/>
<path style="fill:#94c1d1; stroke:none;" d="M133 121L132 123L133 121z"/>
<path style="fill:#b7c1e7; stroke:none;" d="M133 122L134 123L133 122z"/>
<path style="fill:#94c1d1; stroke:none;" d="M108 123L109 124L108 123z"/>
<path style="fill:#b7c1e7; stroke:none;" d="M132 123L133 124L132 123M109 124L110 125L109 124z"/>
<path style="fill:#94c1d1; stroke:none;" d="M110 124L111 125L110 124z"/>
<path style="fill:#b7c1e7; stroke:none;" d="M131 124L132 125L131 124z"/>
<path style="fill:#94c1d1; stroke:none;" d="M111 125L112 126L111 125M130 125L131 126L130 125z"/>
<path style="fill:#b7c1e7; stroke:none;" d="M112 126L113 127L112 126z"/>
<path style="fill:#94c1d1; stroke:none;" d="M113 126L114 127L113 126M129 126L130 127L129 126M114.667 127.333L115.333 127.667L114.667 127.333M128 127L129 128L128 127M116 128L117 129L116 128M127 128L128 129L127 128M117 129L118 130L117 129z"/>
<path style="fill:#b7c1e7; stroke:none;" d="M126 129L127 130L126 129M118 130L119 131L118 130z"/>
<path style="fill:#94c1d1; stroke:none;" d="M119 130L120 131L119 130M124 130L120 131L120 132L125 131L124 130z"/>
<path style="fill:#b7c1e7; stroke:none;" d="M125 130L126 131L125 130M124 131L125 132L124 131z"/>
</svg>
